<svg xmlns="http://www.w3.org/2000/svg" xml:space="preserve" id="레이어_1" width="131.8px" height="24.9px" x="0px" y="0px" version="1.1" viewBox="0 0 131.8 24.9"><style>.st0{fill:#0f78ff}</style><g id="logo-gsshop-blue"><path d="M11.3 24.4C4 24.4 0 19.6 0 12.5S4.4.5 11.5.5c2.8 0 5.2.7 7 1.7l-.8 5c-1.7-1.1-3.8-2-6.1-2-4 0-5.9 2.9-5.9 7.2s2 7.4 6 7.4c1.3 0 2.2-.2 3.1-.7V15h-4l-.7-4.2h9.6V22c-2.4 1.5-5.2 2.4-8.4 2.4M30.5 24.2c-3.1 0-5.7-.7-8-1.7l.8-4.9c2.4 1.3 5 2.1 7.3 2.1 1.6 0 2.8-.7 2.8-2.1 0-1.3-.7-1.9-3.9-3.1-4.6-1.8-6.6-3.3-6.6-7.1C22.9 3 26.4.6 30.8.6c3 0 4.9.6 6.9 1.5L36.8 7c-2.1-1.2-4.2-1.9-6-1.9-1.7 0-2.6.7-2.6 1.8 0 1.2.6 1.7 3.5 2.8 5 1.8 7 3.6 7 7.2 0 5.1-3.7 7.3-8.2 7.3M54.5 24.2c-3.1 0-5.7-.7-8-1.7l.8-4.9c2.4 1.3 5 2.1 7.3 2.1 1.6 0 2.8-.7 2.8-2.1 0-1.3-.7-1.9-3.9-3.1-4.6-1.8-6.6-3.3-6.6-7.1C46.9 3 50.4.6 54.8.6c3 0 4.9.6 6.9 1.5L60.8 7c-2.1-1.2-4.2-1.9-6-1.9-1.7 0-2.6.7-2.6 1.8 0 1.2.6 1.7 3.5 2.8 5 1.8 7 3.6 7 7.2 0 5.1-3.6 7.3-8.2 7.3M79.2 23.9v-9.4h-8v9.4h-5.7V1h5.7v8.5h8V1h5.7v22.9M122.6 16.3h-1.5v7.6h-5.7V1h7.4c5.6 0 9 2.5 9 7.5 0 5.1-3.7 7.8-9.2 7.8m-.1-11H121V12h1.3c2.5 0 3.9-1.1 3.9-3.5.1-2.2-1.2-3.2-3.7-3.2M94.6 12.4C94.6 6 95.8 1.5 97.7 0c-6 .7-9.8 5.6-9.8 12.5s3.8 11.7 9.8 12.4c-1.9-1.5-3.1-6-3.1-12.5M102.7 0c2 1.5 3.1 6 3.1 12.4s-1.1 10.9-3.1 12.4c6-.7 9.8-5.6 9.8-12.5 0-6.8-3.8-11.6-9.8-12.3" class="st0"/></g></svg>