<svg width="161" height="37" viewBox="0 0 161 37" fill="none" xmlns="http://www.w3.org/2000/svg">
<path d="M39.4793 0H29.7169L29.4698 1.05779C28.5652 4.91329 26.8797 8.80339 24.4626 12.6342C23.8546 13.5684 23.2021 14.5174 22.4805 15.4961C22.8314 15.6642 23.1774 15.8224 23.5284 16.0151C26.2272 17.4585 28.9508 19.3516 31.269 21.8083C33.4044 19.1687 35.2481 16.4402 36.731 13.6771L36.7606 13.6326L38.5549 9.89578L38.5648 9.87601C39.7066 7.19199 40.5222 4.50302 41.0066 1.8536C41.0066 1.8536 41.3428 0.0494295 41.3428 0.00494295H39.4793V0Z" fill="#A1CC5B"/>
<path d="M37.1901 33.6466C36.4487 29.1337 34.5259 25.5254 32.0346 22.6288C31.7875 22.3421 31.5354 22.0703 31.2734 21.8033C28.9502 19.3467 26.2267 17.4535 23.5328 16.0102C23.1818 15.8174 22.8358 15.6593 22.4849 15.4912C20.6807 14.5916 18.9161 13.8847 17.3195 13.341C16.924 13.2076 16.5434 13.0889 16.1777 12.9703C15.0754 12.4315 14.3438 11.4577 14.3438 10.3456C14.3438 10.2121 14.3587 10.0836 14.3784 9.95509C14.4971 9.63874 14.6157 9.3224 14.7294 9.02088C15.9948 5.74865 17.1712 3.74675 17.1959 3.72204L19.4301 0H7.06781L6.18797 1.45817C5.89139 1.94258 0.646924 10.7855 0.0537705 22.3421C-0.0154307 23.6767 -0.0203737 25.0508 0.0537705 26.4448C0.182287 29.0843 0.582666 31.8128 1.36859 34.5907L1.94198 36.6124H13.7408L12.856 33.4489C12.2431 31.2987 11.8822 29.0596 11.7389 26.7512C11.7191 26.3706 11.6994 25.99 11.6796 25.6094C11.9564 24.1265 13.5332 22.9995 15.456 22.9995C16.059 22.9995 16.6374 23.1182 17.1514 23.3208C17.4529 23.479 17.7495 23.6471 18.051 23.8201C21.4716 25.8417 24.6993 29.1189 25.6483 34.3732L26.0537 36.5877H37.6696L37.1951 33.6565L37.1901 33.6466Z" fill="#2E83C6"/>
<path d="M113.348 4.53769C111.989 3.52439 110.032 3.04492 107.797 3.04492H101.396C100.783 3.04492 100.289 3.56393 100.289 4.20157V17.8095C100.289 18.4422 100.783 18.9612 101.396 18.9612H107.797C110.032 18.9612 111.984 18.462 113.348 17.4635C115.647 15.7384 115.499 13.1977 115.499 10.8993C115.499 8.60079 115.647 6.26772 113.348 4.53769ZM111.129 15.7186C110.219 16.4601 109.013 16.7962 107.486 16.7962H103.542V5.20005H107.486C109.013 5.20005 110.224 5.54111 111.129 6.27761C112.221 7.20194 112.261 8.69965 112.261 10.8943C112.261 13.089 112.221 14.7992 111.129 15.7137V15.7186Z" fill="#161616"/>
<path d="M91.5781 11.9274C93.9754 11.4183 95.8537 9.96999 95.8537 7.69129C95.8537 4.99244 93.2686 3.04492 89.1906 3.04492H82.0085C81.3956 3.04492 80.9062 3.56393 80.9062 4.20157V17.8095C80.9062 18.4422 81.3956 18.9612 82.0085 18.9612H84.1538V12.2635H88.2119L92.7199 18.9612H96.5062L91.5781 11.9274ZM84.1538 10.2023V5.20005H88.9633C91.1283 5.20005 92.5914 6.14909 92.5914 7.71601C92.5914 9.28292 91.1283 10.2023 88.9633 10.2023H84.1538Z" fill="#161616"/>
<path d="M73.4617 3.04492C72.8537 3.04492 72.3594 3.56393 72.3594 4.20157V17.8095C72.3594 18.4422 72.8537 18.9612 73.4617 18.9612H75.6069V3.04492H73.4617Z" fill="#161616"/>
<path d="M61.8987 9.28786L68.8386 3.04492H64.8744L56.1254 11.0525V3.04492H53.9752C53.3672 3.04492 52.8828 3.56393 52.8828 4.20157V17.8095C52.8828 18.4422 53.3672 18.9612 53.9752 18.9612H56.1254V14.3346L59.7239 11.1069L65.7444 18.9612H69.5653L61.8987 9.28786Z" fill="#161616"/>
<path d="M102.455 29.9885V28.8566H105.119V28.0904H101.18V26.9585H110.492V28.0904H106.548V28.8566H108.495C108.733 28.8566 108.901 28.9258 108.999 29.0741C109.098 29.2174 109.148 29.3954 109.148 29.6079V31.7482H103.938V32.1387C103.938 32.2375 103.958 32.3067 103.992 32.3364C104.027 32.3661 104.086 32.3858 104.175 32.3858H109.34V33.5178H103.419C103.152 33.5178 102.939 33.4239 102.776 33.2311C102.613 33.0383 102.534 32.7912 102.534 32.4847V31.6246C102.534 31.422 102.529 30.6212 102.529 30.6212H107.744V30.2208C107.744 30.1318 107.724 30.0725 107.69 30.0379C107.655 30.0033 107.586 29.9885 107.482 29.9885H102.46H102.455ZM105.09 22.5049H105.851C106.103 22.5049 106.286 22.5543 106.394 22.6631C106.503 22.7669 106.558 22.9053 106.558 23.0783V23.1821C106.558 23.5034 106.656 23.7999 106.854 24.0669C107.057 24.3338 107.309 24.5661 107.625 24.7688C107.942 24.9665 108.288 25.1395 108.668 25.2828C109.044 25.4262 109.415 25.53 109.775 25.5992L109.395 26.5779C109.049 26.5235 108.693 26.4345 108.342 26.3159C107.986 26.1973 107.645 26.0589 107.334 25.8908C107.017 25.7277 106.741 25.5399 106.493 25.3322C106.246 25.1246 106.063 24.9072 105.93 24.6798C105.806 24.9072 105.623 25.1296 105.371 25.3372C105.124 25.5497 104.833 25.7425 104.501 25.9155C104.17 26.0885 103.809 26.2319 103.414 26.3505C103.023 26.4691 102.623 26.5532 102.228 26.5976L101.817 25.5053C102.228 25.441 102.628 25.3421 103.023 25.2037C103.419 25.0653 103.765 24.8973 104.071 24.6996C104.378 24.5018 104.62 24.2695 104.808 24.0174C104.996 23.7653 105.09 23.4885 105.09 23.187V22.5049Z" fill="#161616"/>
<path d="M65.9734 23.4092H61.935V24.5511H64.9551C65.0639 24.5511 65.1331 24.5758 65.1578 24.6203C65.1825 24.6647 65.1924 24.7488 65.1825 24.8674C65.1083 25.9104 64.7673 26.8495 64.1544 27.6849C63.5414 28.5202 62.6566 29.2024 61.5 29.7263L62.1475 30.878C62.9285 30.5221 63.5958 30.1168 64.1544 29.6571C64.7129 29.1974 65.1726 28.6932 65.5334 28.1347C65.8943 27.5761 66.1711 26.9731 66.354 26.3206C66.5369 25.6682 66.6456 24.9762 66.6802 24.2397C66.695 23.9431 66.6456 23.7256 66.5319 23.5971C66.4182 23.4686 66.2304 23.4043 65.9684 23.4043L65.9734 23.4092Z" fill="#161616"/>
<path d="M69.4754 26.2465V23.256C69.4754 22.7963 69.2579 22.5541 68.8328 22.5195H68.0469V33.1271H68.8328C69.248 33.0875 69.4606 32.8602 69.4704 32.4203V27.3735H70.978V26.2416H69.4704L69.4754 26.2465Z" fill="#161616"/>
<path d="M75.4495 24.4922C75.5039 24.5366 75.5286 24.6306 75.5286 24.7739V28.5503H76.9571V24.3636C76.9571 24.0077 76.883 23.7408 76.7397 23.5629C76.5963 23.3849 76.3492 23.291 76.0032 23.291H71.8906V24.423H75.1727C75.3013 24.423 75.3952 24.4477 75.4495 24.4922Z" fill="#161616"/>
<path d="M80.9208 27.8679V26.736H79.4379V23.2512C79.4379 22.7569 79.1908 22.5098 78.7014 22.5098H78.0094V29.42C77.8562 29.4694 77.6881 29.509 77.5102 29.5436C77.3273 29.5782 77.1395 29.6128 76.9516 29.6424C76.7588 29.6721 76.571 29.6968 76.3832 29.7116C76.1954 29.7265 76.0174 29.7364 75.8493 29.7364H74.3467V26.5729H72.9182V29.7364H71.0547V30.8683H75.5824C75.7703 30.8683 75.9729 30.8584 76.1855 30.8386C76.403 30.8189 76.6204 30.7892 76.8379 30.7497C77.0554 30.7101 77.263 30.6656 77.4607 30.6211C77.6585 30.5767 77.8413 30.5223 78.0094 30.458V33.1272H78.7953C79.2204 33.0877 79.4379 32.8455 79.4379 32.3858V27.8679H80.9208Z" fill="#161616"/>
<path d="M60.6875 27.9768V26.8448H59.348V24.1361C59.348 23.7851 59.2738 23.5182 59.1305 23.3353C58.9871 23.1524 58.74 23.0635 58.394 23.0635H52.7343V24.1954H57.5586C57.6921 24.1954 57.7811 24.2152 57.8354 24.2646C57.8898 24.314 57.9145 24.403 57.9145 24.5464V26.8399H51.375V27.9718H55.3145V29.6524H52.586V30.7844H57.5636C57.6921 30.7844 57.786 30.8091 57.8404 30.8585C57.8947 30.903 57.9244 30.9969 57.9244 31.1402V33.5672H58.6214L58.7153 33.5524C59.1305 33.5227 59.348 33.2163 59.343 32.8456C59.343 32.4748 59.343 30.725 59.343 30.725C59.343 30.3741 59.2689 30.1072 59.1255 29.9243C58.9822 29.7414 58.735 29.6524 58.389 29.6524H56.748V27.9718H60.6875V27.9768Z" fill="#161616"/>
<path d="M96.0478 23.4092H92.1182V24.5758H95.0395C95.1482 24.5758 95.2125 24.6005 95.2372 24.645C95.2619 24.6944 95.2718 24.7735 95.2668 24.8921C95.2372 25.3617 95.1433 25.8214 94.9851 26.2761C94.8269 26.726 94.5946 27.156 94.298 27.5712C94.0014 27.9815 93.6208 28.372 93.1661 28.7377C92.7113 29.1035 92.1726 29.4347 91.5547 29.7313L92.2269 30.883C93.0079 30.5271 93.6752 30.1218 94.2338 29.6571C94.7874 29.1925 95.252 28.6834 95.6128 28.1199C95.9786 27.5613 96.2505 26.9533 96.4334 26.3009C96.6163 25.6484 96.725 24.9613 96.7645 24.2397C96.7794 23.9431 96.7299 23.7256 96.6113 23.5971C96.4927 23.4686 96.3098 23.4043 96.0478 23.4043V23.4092Z" fill="#161616"/>
<path d="M99.8603 32.3907V23.2561C99.8603 22.7618 99.6131 22.5146 99.1238 22.5146H98.4219L98.4318 23.3055V33.1321H99.2226C99.6477 33.0975 99.8652 32.8553 99.8652 32.3956L99.8603 32.3907Z" fill="#161616"/>
<path d="M115.235 32.2378C115.121 32.2378 115.037 32.218 114.993 32.1785C114.948 32.1389 114.929 32.0598 114.929 31.9412V29.8701H113.5V32.391C113.5 32.6876 113.584 32.9249 113.757 33.1028C113.93 33.2808 114.162 33.3648 114.449 33.3648H120.153V32.2378H115.23H115.235Z" fill="#161616"/>
<path d="M115.426 28.3717C115.758 28.2185 116.039 28.0158 116.272 27.7588C116.499 27.5018 116.677 27.2151 116.796 26.8888C116.914 26.5626 116.974 26.2265 116.974 25.8706C116.974 25.5147 116.914 25.1736 116.796 24.8474C116.677 24.5162 116.499 24.2246 116.272 23.9626C116.039 23.7006 115.758 23.498 115.426 23.3398C115.095 23.1816 114.715 23.1025 114.289 23.1025C113.864 23.1025 113.484 23.1816 113.153 23.3398C112.821 23.493 112.54 23.7006 112.307 23.9626C112.08 24.2196 111.902 24.5162 111.783 24.8474C111.66 25.1736 111.605 25.5147 111.605 25.8706C111.605 26.2265 111.665 26.5626 111.783 26.8888C111.902 27.2151 112.075 27.5067 112.307 27.7588C112.54 28.0158 112.821 28.2185 113.153 28.3717C113.484 28.525 113.864 28.5991 114.289 28.5991C114.715 28.5991 115.095 28.525 115.426 28.3717ZM113.321 26.9531C113.207 26.8048 113.123 26.6367 113.064 26.4489C113.004 26.2611 112.98 26.0683 112.98 25.8755C112.98 25.6828 113.009 25.485 113.064 25.2972C113.118 25.1094 113.207 24.9413 113.321 24.798C113.434 24.6546 113.573 24.536 113.731 24.452C113.894 24.363 114.077 24.3234 114.289 24.3234C114.502 24.3234 114.685 24.3679 114.848 24.452C115.011 24.536 115.15 24.6546 115.258 24.798C115.372 24.9413 115.456 25.1094 115.515 25.2972C115.57 25.485 115.599 25.6778 115.599 25.8755C115.599 26.0732 115.57 26.2611 115.515 26.4489C115.456 26.6367 115.372 26.8097 115.258 26.9531C115.15 27.1014 115.011 27.225 114.848 27.3139C114.685 27.4029 114.502 27.4523 114.289 27.4523C114.077 27.4523 113.894 27.4078 113.731 27.3139C113.568 27.225 113.429 27.1063 113.321 26.9531Z" fill="#161616"/>
<path d="M119.042 30.4234H119.135C119.556 30.3839 119.768 30.1466 119.778 29.7018V23.2512C119.778 22.7569 119.536 22.5098 119.046 22.5098H118.359C118.359 22.5098 118.359 23.1672 118.359 23.3006V29.6869V30.4234H119.051H119.042Z" fill="#161616"/>
<path d="M146.337 23.6319C146.337 23.3947 146.288 23.2167 146.189 23.0882C146.09 22.9646 145.927 22.9004 145.695 22.9004H144.894C144.894 22.9004 144.904 23.5034 144.904 24.0076V24.4179H142.699V23.7011C142.699 23.4639 142.65 23.2859 142.551 23.1624C142.457 23.0338 142.289 22.9745 142.056 22.9745H141.266C141.266 22.9745 141.266 23.5776 141.266 24.0818V26.7312C141.266 27.1316 141.36 27.4232 141.542 27.611C141.725 27.7988 141.958 27.8928 142.239 27.8928H146.332V23.6319H146.337ZM144.909 26.7608H143.06C142.931 26.7608 142.837 26.7361 142.788 26.6916C142.734 26.6471 142.704 26.5532 142.704 26.4099V25.5498H144.909V26.7608Z" fill="#161616"/>
<path d="M149.179 24.9762V23.2561C149.179 22.7618 148.936 22.5146 148.442 22.5146H147.75V28.12H148.536C148.956 28.0854 149.179 27.9074 149.183 27.4032C149.183 26.899 149.183 26.1032 149.183 26.1032H150.656V24.9713H149.183L149.179 24.9762Z" fill="#161616"/>
<path d="M144.481 32.3411C144.441 32.3114 144.422 32.2422 144.422 32.1434V31.6589H149.177V29.4593C149.177 29.2468 149.127 29.0688 149.028 28.9255C148.93 28.7822 148.762 28.708 148.524 28.708H142.914V29.8251H147.471C147.649 29.8251 147.738 29.9042 147.738 30.0624V30.5567H142.983C142.983 30.5567 142.983 31.3525 142.983 31.5551V32.603C142.983 33.216 143.255 33.5224 143.799 33.5224H149.374V32.3905H144.664C144.58 32.3905 144.516 32.3757 144.476 32.3411H144.481Z" fill="#161616"/>
<path d="M158.248 29.0492H156.32V30.1811H158.248V31.0412H159.034C159.449 31.0066 159.682 30.8435 159.682 30.3244C159.682 29.8054 159.682 23.261 159.682 23.261C159.682 22.7667 159.439 22.5195 158.945 22.5195H158.248C158.248 22.5195 158.248 23.1769 158.248 23.3104V29.0541V29.0492Z" fill="#161616"/>
<path d="M154.956 32.2373C154.828 32.2373 154.734 32.2126 154.679 32.1632C154.625 32.1187 154.6 32.0198 154.6 31.8814V30.3887H153.172V32.3906C153.172 32.6871 153.256 32.9244 153.429 33.1023C153.602 33.2803 153.834 33.3643 154.121 33.3643H160.003V32.2373H154.956Z" fill="#161616"/>
<path d="M153.764 29.988H155.192V28.4952H157.748V27.3633H151.109V28.4952H153.764V29.988Z" fill="#161616"/>
<path d="M152.585 26.3157C152.798 26.5134 153.055 26.6666 153.366 26.7803C153.677 26.894 154.033 26.9484 154.439 26.9484C154.844 26.9484 155.19 26.8891 155.506 26.7803C155.818 26.6666 156.085 26.5134 156.302 26.3157C156.515 26.118 156.683 25.8906 156.796 25.6237C156.905 25.3567 156.964 25.075 156.964 24.7784C156.964 24.4818 156.905 24.1853 156.796 23.9233C156.683 23.6613 156.52 23.4339 156.302 23.2362C156.085 23.0385 155.818 22.8853 155.506 22.7716C155.19 22.6579 154.834 22.6035 154.439 22.6035C154.043 22.6035 153.677 22.6579 153.366 22.7716C153.055 22.8853 152.798 23.0385 152.585 23.2362C152.377 23.4339 152.214 23.6613 152.106 23.9233C151.992 24.1853 151.938 24.472 151.938 24.7784C151.938 25.0849 151.992 25.3567 152.106 25.6237C152.214 25.8906 152.377 26.1229 152.585 26.3157ZM153.574 24.0567C153.776 23.859 154.063 23.7602 154.449 23.7602C154.834 23.7602 155.111 23.859 155.314 24.0567C155.516 24.2495 155.615 24.4917 155.615 24.7735C155.615 25.0552 155.511 25.3024 155.314 25.4951C155.111 25.6879 154.819 25.7818 154.449 25.7818C154.078 25.7818 153.776 25.683 153.574 25.4951C153.376 25.3024 153.277 25.0602 153.277 24.7735C153.277 24.4868 153.376 24.2495 153.574 24.0567Z" fill="#161616"/>
<path d="M128.359 29.0838H129.15C129.575 29.0443 129.793 28.8021 129.793 28.3424V23.2561C129.793 22.7618 129.545 22.5146 129.051 22.5146H128.354C128.354 22.5146 128.354 23.1721 128.354 23.3055V23.8838H126.535V25.0108H128.354V26.2713H126.535V27.4032H128.354V29.0838H128.359Z" fill="#161616"/>
<path d="M128.837 29.707H122.945V30.839H128.002C128.13 30.839 128.224 30.8637 128.279 30.9082C128.333 30.9527 128.358 31.0466 128.358 31.1899V33.5675H129.144C129.569 33.5279 129.791 33.2363 129.786 32.8211C129.786 32.4059 129.786 30.7797 129.786 30.7797C129.786 30.4287 129.712 30.1568 129.569 29.9789C129.426 29.796 129.178 29.707 128.832 29.707H128.837Z" fill="#161616"/>
<path d="M126.52 27.7992H123.371C123.238 27.7992 123.149 27.7547 123.094 27.6657C123.04 27.5767 123.01 27.4581 123.01 27.3197V26.4003H126.065V23.7064C126.065 23.4939 126.016 23.3159 125.922 23.1726C125.823 23.0292 125.655 22.9551 125.418 22.9551H121.508V24.003H124.365C124.543 24.003 124.637 24.0821 124.637 24.2402V25.3574H121.582C121.582 25.3574 121.582 26.1532 121.582 26.3558V27.7547C121.582 28.0611 121.666 28.3182 121.829 28.5307C121.997 28.7433 122.215 28.8471 122.482 28.8471H126.52V27.7992Z" fill="#161616"/>
<path d="M135.042 23.5284H131.448V24.6801H134.058C134.152 24.6801 134.207 24.7049 134.226 24.7493C134.246 24.7988 134.256 24.8779 134.256 24.9965C134.256 25.4265 134.192 25.8665 134.068 26.3064C133.94 26.7512 133.752 27.1763 133.5 27.5915C133.248 28.0067 132.921 28.3972 132.526 28.763C132.126 29.1288 131.661 29.4451 131.117 29.722L131.775 30.8143C133.075 30.1223 134.038 29.2474 134.676 28.1896C135.314 27.1318 135.635 25.8516 135.65 24.3539C135.65 24.0573 135.605 23.8398 135.516 23.7113C135.427 23.5828 135.269 23.5186 135.047 23.5186L135.042 23.5284Z" fill="#161616"/>
<path d="M140.128 23.3154C140.128 22.7816 139.885 22.5146 139.401 22.5146H138.778C138.778 22.5146 138.783 23.1671 138.783 23.2907V26.4443H137.799V23.4439C137.799 23.2067 137.75 23.0287 137.651 22.9002C137.552 22.7766 137.389 22.7124 137.157 22.7124H136.465C136.465 22.7124 136.47 23.4192 136.47 23.5477V32.9146H137.142C137.562 32.88 137.79 32.7416 137.79 32.1979V27.6059H138.773V33.1272H139.475C139.89 33.0876 140.118 32.9443 140.118 32.4203C140.118 31.8964 140.118 23.3154 140.118 23.3154H140.128Z" fill="#161616"/>
<path d="M90.8809 26.7508V25.6238H89.4079V23.2561C89.4079 22.7618 89.1657 22.5146 88.6714 22.5146H87.9844V29.0789H88.7654V29.0641C89.1855 29.0344 89.3981 28.7971 89.4079 28.3473C89.4079 28.3473 89.4079 28.3325 89.4079 28.3276V26.7458H90.8809V26.7508Z" fill="#161616"/>
<path d="M84.2548 28.8467C84.6453 28.8467 84.9963 28.7874 85.3027 28.6638C85.6141 28.5402 85.8712 28.3771 86.0837 28.1695C86.2913 27.9619 86.4544 27.7197 86.5632 27.4429C86.6769 27.1611 86.7313 26.8646 86.7313 26.5433C86.7313 25.9007 86.5236 25.3619 86.1035 24.9319H87.1316V23.7999H84.932V23.2562C84.932 23.0585 84.8826 22.8855 84.7837 22.7323C84.6898 22.584 84.5316 22.5098 84.3142 22.5049H84.2993C84.2993 22.5049 84.2894 22.5049 84.2845 22.5049H83.5826V23.4935V23.7999H81.2891V24.9319H82.4062C82.1936 25.1444 82.0355 25.3866 81.9267 25.6634C81.818 25.9353 81.7636 26.2319 81.7636 26.5433C81.7636 26.8547 81.818 27.1661 81.9366 27.4429C82.0503 27.7197 82.2183 27.9619 82.4309 28.1695C82.6434 28.3771 82.9054 28.5402 83.2119 28.6638C83.5183 28.7824 83.8693 28.8467 84.2548 28.8467ZM83.2267 26.0341C83.2761 25.8859 83.3503 25.7524 83.4442 25.6387C83.5381 25.525 83.6518 25.4361 83.7902 25.3668C83.9286 25.2976 84.0818 25.268 84.2548 25.268C84.4278 25.268 84.5959 25.2976 84.7343 25.3668C84.8776 25.4361 84.9963 25.525 85.0852 25.6387C85.1792 25.7524 85.2484 25.8859 85.2978 26.0341C85.3423 26.1824 85.367 26.3357 85.367 26.4938C85.367 26.8201 85.2731 27.1068 85.0852 27.349C84.8974 27.5862 84.6206 27.7049 84.2499 27.7049C83.8792 27.7049 83.6271 27.5862 83.4343 27.349C83.2465 27.1068 83.1476 26.825 83.1476 26.4938C83.1476 26.3357 83.1723 26.1824 83.2218 26.0341H83.2267Z" fill="#161616"/>
<path d="M89.4104 32.8158V30.8041C89.4104 30.4531 89.3362 30.1813 89.1929 30.0033C89.0495 29.8254 88.8024 29.7314 88.4564 29.7314H82.8906V30.8634H87.621C87.7495 30.8634 87.8435 30.8881 87.8978 30.9326C87.9522 30.982 87.9769 31.0759 87.9769 31.2143V33.5672L88.0016 33.5523H88.7678C89.1879 33.5177 89.4005 33.2805 89.4104 32.8356V32.8257C89.4104 32.8257 89.4104 32.8158 89.4104 32.8109V32.8158Z" fill="#161616"/>
</svg>
