<svg xmlns="http://www.w3.org/2000/svg" width="239.34566mm" height="50.07394mm" viewBox="0 0 239.34566 50.07394"><g style="stroke-width:.231174"><path d="M0 0c-2.329-4.427-6.913-7.453-12.182-7.453-7.657 0-13.846 6.329-13.846 14.143 0 7.804 5.826 13.746 13.846 14.119 1.023.059 2.046-.113 3.032-.331-.147.009-.32.009-.476.009-6.787 0-10.742-5.417-10.742-10.364 0-7.059 4.424-11.974 12.208-11.974 2.287 0 6.291.656 8.16 1.851" style="fill:#f47026;fill-opacity:1;fill-rule:nonzero;stroke:none;stroke-width:.231174" transform="matrix(1.52603 0 0 -1.52603 78.853 31.773)"/></g><g style="stroke-width:.231174"><path d="M0 0s8.514-3.638 7.744-14.709c0 0-4.099 5.566-16.471 6.743 0 0 7.379 1.67 14.014-1.665 0 0 .436 4.446-5.287 9.631" style="fill:#f47026;fill-opacity:1;fill-rule:nonzero;stroke:none;stroke-width:.231174" transform="matrix(1.52603 0 0 -1.52603 69.318 2.09)"/></g><g style="stroke-width:.231174"><path d="M0 0c11.63-1.01 14.572 5.459 13.856 10.186-1.358 8.78-14.992 5.455-15.082 11.522-.023 2.433 2.781 3.186 4.22 3.125 2.469-.157 4.775-1.609 5.675-3.463h3.62v3.729c-1.08.714-4.083 1.362-7.617 1.772-.213.017-.414-.025-.61-.025-.273.015-.511.025-.771.025-7.62.036-11.238-3.674-10.719-8.296.793-6.957 13.23-4.742 13.956-10.722C6.873 4.993 4.708 2.886 2 2.69c-3.241 0-5.038 1.355-5.973 4.603h-3.733V2.17C-5.405 1.049-2.549.176.136 0" style="fill:#918f90;fill-opacity:1;fill-rule:nonzero;stroke:none;stroke-width:.231174" transform="matrix(1.52603 0 0 -1.52603 11.76 43.081)"/></g><g style="stroke-width:.231174"><path d="M0 0v-10.814c0-1.759 0-5.837-.632-7.399-1.144-2.901-2.734-4.147-5.589-4.31-1.341.094-2.519.55-3.538 1.524-1.253 1.248-1.517 2.359-1.831 4.121-.326 1.865-.257 4.774-.257 6.738V0h-6.344v-14.573c0-1.423.184-2.993.567-4.393 1.291-4.641 5.886-6.003 10.102-6.003.149 0 .326.019.483.019.191-.013.404-.019.619-.019 2.309 0 4.713.478 6.611 1.892 3.626 2.577 3.584 6.296 3.691 10.361V0Z" style="fill:#918f90;fill-opacity:1;fill-rule:nonzero;stroke:none;stroke-width:.231174" transform="matrix(1.52603 0 0 -1.52603 140.799 4.107)"/></g><g style="stroke-width:.231174"><path d="M0 0v24.517h-3.909V9.043c-4.622 5.286-9.426 10.347-14.009 15.474h-4.549V.082h3.888v16.113l2.693-2.883C-11.91 9.043-8.141 4.658-4.076.026Z" style="fill:#918f90;fill-opacity:1;fill-rule:nonzero;stroke:none;stroke-width:.231174" transform="matrix(1.52603 0 0 -1.52603 192.865 41.52)"/></g><g style="stroke-width:.231174"><path d="M0 0h-2.952c-1.507 2.247-3.803 3.456-6.347 3.615-5.459-.326-8.152-5.544-8.152-11.357 0-6.026 2.892-9.713 7.882-9.912 1.455.092 2.511.531 3.231.977v8.345H.048v-9.885c-3.172-.902-6.278-1.609-9.357-1.609-.237 0-.456.006-.68.019-.134 0-.278-.019-.44-.019-7.351 0-13.941 3.785-13.941 12.191 0 8.896 6.362 13.426 14.452 13.426h1.098c3.007 0 6.175-.909 8.82-2.429z" style="fill:#918f90;fill-opacity:1;fill-rule:nonzero;stroke:none;stroke-width:.231174" transform="matrix(1.52603 0 0 -1.52603 239.272 11.955)"/></g><g style="stroke-width:.231174"><path d="M0 0v18.39h-6.355V-.632c0-4.728.316-7.941-4.747-8.876l-.015-2.218c2.257-.038 3.339.121 3.339.121 2.882.348 5.166 1.492 6.677 4.064C.094-5.561 0-2.515 0 0" style="fill:#918f90;fill-opacity:1;fill-rule:nonzero;stroke:none;stroke-width:.231174" transform="matrix(1.52603 0 0 -1.52603 101.353 32.17)"/></g></svg>