<svg xmlns="http://www.w3.org/2000/svg" width="192.25122mm" height="150.56046mm" viewBox="0 0 192.25122 150.56046"><path d="M0 0c-1.022.812-2.594 1.368-4.824 1.957-.689.21-1.078.36-1.283.509-.205.151-.238.283-.24.518.002.232.058.372.238.476.182.104.505.159 1.029.158 1.372 0 2.93-.418 5.005-1.319l.06-.028 1.239 4.303-.052.018C-.938 7.346-2.544 7.74-4.93 7.74c-2.16 0-3.786-.484-4.873-1.384-1.088-.9-1.63-2.216-1.628-3.854-.003-1.649.429-2.745 1.473-3.576 1.047-.83 2.693-1.402 5.134-2.05.51-.135.82-.255.994-.396.173-.141.225-.293.226-.542a.501.501 0 0 0-.295-.49c-.215-.113-.568-.174-1.091-.174-1.372-.001-3.537.54-5.426 1.38l-.06.026-1.301-4.209.05-.019c2.024-.786 4.29-1.3 6.617-1.3 2.025.001 3.671.423 4.817 1.312 1.143.888 1.777 2.243 1.775 4.077C1.484-1.884 1.022-.812 0 0" style="fill:#595757;fill-opacity:1;fill-rule:nonzero;stroke:none" transform="matrix(3.54034 0 0 -3.54034 109.37 56.097)"/><path d="M0 0c-5.3 0-9.186 2.637-9.186 9.288v12.013h5.964V9.288c0-2.578 1.024-4.164 3.312-4.164S3.341 6.71 3.341 9.288v12.013h5.963V9.288C9.304 2.637 5.298 0 0 0" style="fill:#ea5505;fill-opacity:1;fill-rule:nonzero;stroke:none" transform="matrix(3.54034 0 0 -3.54034 159.257 87.42)"/><path d="m0 0-3.869-.779c4.083 6.858.384 12.154.384 12.154l4.844 1.2C5.393 6.436 0 0 0 0" style="fill:#ea5505;fill-opacity:1;fill-rule:nonzero;stroke:none" transform="matrix(3.54034 0 0 -3.54034 77.62 44.52)"/><path d="m0 0-1.755-3.223C-2.82-5.325-3.694-7.261-4.112-8.512c-.419 1.251-1.29 3.187-2.356 5.289L-8.224 0h-6.881l7.954-13.382v-7.811h6.017v7.901L6.822 0Z" style="fill:#595757;fill-opacity:1;fill-rule:nonzero;stroke:none" transform="matrix(3.54034 0 0 -3.54034 54.245 11.215)"/><path d="M0 0v1.771h-1.518v-2.36c0-1.033.477-1.426 1.365-1.426h5.731V-.69H.573C.021-.69 0-.481 0 0m-6.806 8.057h-1.56V6.735h1.56V5.514h-1.56V4.193h1.56V2.967h1.562v6.045h-1.562zm-5.086-5.003-.001.001-.005-.001zm-1.241 3.017c0 .958.395 1.668 1.238 1.67.842-.002 1.238-.712 1.238-1.67 0-.959-.396-1.656-1.238-1.657-.843.001-1.238.698-1.238 1.657m4.078 0c0 1.779-1.198 3.027-2.84 3.028-1.641-.001-2.839-1.249-2.839-3.028 0-1.778 1.198-3.014 2.839-3.016 1.642.002 2.84 1.238 2.84 3.016m-2.843 3.028h.006zm3.007-10.471c-.984 0-1.712.42-1.712 1.315 0 .896.741 1.329 1.712 1.329.885 0 1.699-.433 1.699-1.329 0-.895-.717-1.315-1.699-1.315m0 4.019c-1.952 0-3.323-1.146-3.323-2.702s1.371-2.692 3.323-2.692c1.951 0 3.308 1.136 3.308 2.692 0 1.556-1.357 2.702-3.308 2.702m8.438 2.728c.761-1.662 2.378-2.494 2.378-2.494l.748 1.08S.298 5.297.356 8.6v.125h-1.619V8.6c.059-3.303-2.316-4.639-2.316-4.639l.748-1.08s1.618.832 2.378 2.494zm5.871 3.641H3.9V1.207h1.518V5.13h1.455v1.317H5.418Zm21.52-7.15-5.698-.001V.547h4.967c.551 0 .58-.205.58-.687v-1.902h1.516L28.304.44c0 1.033-.478 1.426-1.366 1.426M21.24 5.291c0 .706.578 1.049 1.337 1.049.69 0 1.323-.343 1.323-1.049 0-.707-.558-1.038-1.323-1.038-.768 0-1.337.331-1.337 1.038m4.087.001c0 .842-.458 1.541-1.209 1.94h1.536v1.222h-2.27v.91h-1.6v-.91h-2.283V7.232h1.532c-.754-.399-1.219-1.098-1.219-1.94 0-1.321 1.141-2.286 2.763-2.286 1.622 0 2.75.965 2.75 2.286m2.975 3.727h-1.515V2.593h1.516l-.001 2.644h1.489v1.326h-1.489Zm9.149-2.718V2.083h1.54V6.84c0 .703-.049 1.65-1.394 1.65h-6.249V7.145h5.196c.884 0 .907-.099.907-.844M36.43.638v3.478h-1.495V.638h-1.011v3.477h-1.482V.638h-1.86v-1.35h8.987v1.35zM9.937 3.334v3.843h2.864v1.317h-4.37V2.631c0-1.008.454-1.404 1.3-1.424h3.204V2.53l-2.363.002c-.612 0-.635.266-.635.802m6.279 2.272h-1.038v3.413h-1.487V-2.046h1.487v6.347h1.038v-6.347h1.5V9.019h-1.5z" style="fill:#595757;fill-opacity:1;fill-rule:nonzero;stroke:none" transform="matrix(3.54034 0 0 -3.54034 52.163 140.835)"/></svg>