<svg xmlns="http://www.w3.org/2000/svg" width="100" height="50"><path fill="#3D3C3C" d="M47.633.008c-.09.012-.157.083-.168.18-.008.04-.008.785-.008 1.664l.008 1.594.039.043c.078.082.043.082 1.648.082h1.492l.004 3.055c.004 1.68 0 3.254-.004 3.5l-.011.441-.118-.113c-.562-.551-1.453-1.012-2.39-1.239-.594-.144-.93-.18-1.68-.18-.637 0-.719.005-1.219.098a6.57 6.57 0 0 0-4.32 2.883c-.57.875-.922 1.856-1.074 2.977-.043.32-.063 1.152-.031 1.515a7 7 0 0 0 1.296 3.598 6.7 6.7 0 0 0 1.36 1.387 6.56 6.56 0 0 0 2.793 1.215c.754.14 1.664.14 2.43 0 1.128-.2 2.132-.684 2.886-1.38.063-.062.125-.113.129-.113.008 0 .012.293.012.653 0 .637.004.656.035.7.02.026.059.058.09.073.05.028.168.028 1.926.028 1.43-.004 1.882-.012 1.91-.028a.2.2 0 0 0 .062-.062c.031-.043.031-.29.035-11.223C54.77.735 54.77.173 54.742.118a.2.2 0 0 0-.09-.082C54.593.005 54.45.005 51.148 0c-1.894 0-3.476.004-3.515.007m.101 12.438a3.4 3.4 0 0 1 2.156 1.18c.653.78.922 1.886.73 2.988a3.4 3.4 0 0 1-.956 1.855c-.625.618-1.48.957-2.426.957-.348 0-.602-.03-.902-.109a3.2 3.2 0 0 1-1.606-.937c-.59-.625-.91-1.48-.91-2.454 0-1.3.566-2.382 1.57-3.007.657-.407 1.536-.582 2.344-.473M58.37.005c-.089.011-.14.043-.167.109-.024.047-.027 1.27-.027 11.223 0 6.648.007 11.183.015 11.207.008.02.035.054.059.078l.043.039h3.992c4.129 0 4.09 0 4.758-.067 2.476-.246 4.675-1.125 6.398-2.562.23-.192.824-.774 1.024-1.004a9.7 9.7 0 0 0 1.449-2.168c.687-1.402 1.05-2.832 1.164-4.566.035-.512.027-1.711-.016-2.168-.219-2.434-.969-4.446-2.277-6.094C73.633 2.579 72.117 1.5 70.254.809a13.4 13.4 0 0 0-4.157-.793c-.402-.015-7.629-.02-7.726-.011m7.333 3.687c.781.027 1.3.098 1.926.254.855.215 1.554.516 2.254.984 1.382.918 2.328 2.325 2.753 4.086.258 1.074.329 2.246.204 3.461-.149 1.434-.594 2.672-1.329 3.7-1.058 1.476-2.687 2.417-4.695 2.71-.582.086-.598.086-2.57.094l-1.856.004V3.692l.078-.004a112 112 0 0 1 3.235.004m0 0"/><path fill="#3A76F1" d="M28.578 6.458c-.895.16-1.703.87-2.266 2.008a7.4 7.4 0 0 0-.722 2.527c-.008.094-.024.18-.028.187a.5.5 0 0 1-.172-.027c-.23-.05-.5-.102-.75-.133a11 11 0 0 0-1.379-.023c-1.894.172-3.152 1.008-3.402 2.261-.043.23-.05.38-.031.586.031.356.113.637.289.997.195.39.437.73.8 1.105.43.441.93.832 1.493 1.164.266.156.64.348.879.445a1 1 0 0 1 .187.094c0 .004-.02.043-.047.078-.074.113-.25.442-.355.668a7.6 7.6 0 0 0-.668 2.27c-.027.226-.027.949 0 1.148.137.977.566 1.649 1.273 2.004.551.277 1.286.3 2.055.066 1.04-.312 2.176-1.082 3.043-2.05.094-.11.184-.196.195-.196s.028.016.043.04c.09.14.684.734.993.984.886.726 1.796 1.183 2.68 1.344.081.015.269.03.421.035.442.015.75-.047 1.102-.215.242-.113.402-.227.586-.41.402-.403.644-.965.726-1.664.024-.223.024-.75 0-.996a7.6 7.6 0 0 0-.984-2.954.7.7 0 0 1-.082-.16c0-.015.027-.035.066-.047a7 7 0 0 0 .676-.312c1.215-.645 2.176-1.55 2.617-2.465.41-.844.379-1.648-.09-2.371-.289-.45-.812-.844-1.445-1.086a6 6 0 0 0-1.332-.332 10 10 0 0 0-1.45-.031c-.359.035-.706.09-1.05.172-.05.011-.094.015-.098.011a1 1 0 0 1-.015-.125c-.13-1.324-.555-2.515-1.22-3.402a4.4 4.4 0 0 0-.694-.707c-.559-.422-1.227-.598-1.844-.488m.914 6.027c.875.152 1.578.555 2.137 1.223a3.459 3.459 0 0 1-3.5 5.558 3.44 3.44 0 0 1-1.575-.879 3.42 3.42 0 0 1-1.02-2.011c-.038-.262-.026-.84.024-1.086.164-.825.543-1.48 1.157-2.008a3.4 3.4 0 0 1 1.832-.809l.203-.027c.113-.016.558.008.742.039m0 0"/><path fill="#F27091" d="M28.828 23.926c-.375.059-.723.278-1.031.653-.586.703-1.055 2.015-1.332 3.722-.028.168-.055.352-.063.407-.012.144-.02.148-.09.058a8 8 0 0 0-.386-.402c-1.18-1.156-2.301-1.914-3.16-2.129a3 3 0 0 0-.598-.09 1.47 1.47 0 0 0-.75.23c-.32.212-.528.544-.625 1.005-.051.234-.051.714 0 1.043.144.94.578 2.12 1.218 3.316.051.094.094.176.094.187 0 .016-.027.012-.117-.003-.836-.16-1.61-.239-2.418-.239-.633 0-.953.031-1.402.13q-1.372.303-1.578 1.288c-.079.383.035.817.328 1.258.523.79 1.672 1.66 3.172 2.402.207.106.382.196.382.204s-.027.023-.058.039c-.254.101-.988.5-1.383.742-.73.453-1.148.77-1.594 1.219-.469.468-.71.84-.828 1.273a1.3 1.3 0 0 0-.031.336c0 .254.031.394.14.613.461.93 2.047 1.262 4.504.938.246-.032.711-.11.887-.145q.026-.006.027 0c0 .004-.03.05-.062.11-.098.156-.438.843-.559 1.125-.297.69-.468 1.18-.613 1.78-.168.677-.184 1.333-.047 1.766.207.668.746 1.043 1.442 1.008.757-.039 1.632-.488 2.761-1.422.309-.254.555-.488 1.008-.937l.324-.324.012.097c.176 1.364.55 2.711.977 3.512.379.719.812 1.129 1.328 1.273.16.043.488.04.652-.007.262-.075.473-.2.688-.399.546-.515.976-1.43 1.3-2.762.106-.441.149-.66.235-1.207.039-.238.07-.449.074-.464.008-.036.031-.016.215.175.23.239.703.684.988.93.95.816 1.871 1.352 2.59 1.496.336.07.691.043.96-.07.243-.098.509-.328.638-.551.449-.766.285-2.059-.496-3.86-.118-.269-.461-.972-.567-1.16-.066-.117-.07-.117.129-.078.445.086 1.188.176 1.66.204.418.023 1.36.011 1.625-.024.77-.101 1.313-.312 1.653-.637.187-.183.292-.347.375-.601.039-.125.042-.16.042-.371a1.3 1.3 0 0 0-.12-.621c-.247-.598-.903-1.274-1.86-1.918a12.5 12.5 0 0 0-1.582-.907l-.355-.171.355-.18c.96-.485 1.703-.957 2.316-1.465.211-.176.586-.55.73-.734.243-.305.407-.606.481-.899a1.7 1.7 0 0 0 0-.68 1.46 1.46 0 0 0-.597-.828c-.223-.148-.641-.308-1.004-.382-.961-.192-2.281-.157-3.696.105-.093.016-.18.031-.191.031s.02-.074.086-.199c.594-1.105 1.047-2.309 1.195-3.195.051-.305.07-.766.043-1.004-.101-.852-.597-1.348-1.386-1.387a1.9 1.9 0 0 0-.618.078c-.62.16-1.418.63-2.254 1.324-.316.266-.847.758-1.113 1.04-.125.132-.23.238-.238.238s-.012-.02-.012-.043c0-.074-.11-.738-.172-1.047-.203-1.016-.445-1.773-.765-2.422q-.576-1.154-1.352-1.351a1.8 1.8 0 0 0-.531-.04m.25 6.98c.101.419.316.81.605 1.102.29.29.586.45 1.035.551.2.043.567.04.782-.008a2.6 2.6 0 0 0 1.07-.543c.059-.05.11-.09.117-.09.004 0-.004.028-.023.06-.051.1-.125.327-.172.53-.043.176-.047.22-.047.508 0 .293.004.328.043.48.078.282.18.505.344.723.39.532 1 .817 1.738.82.129 0 .266-.003.305-.015.039-.008.074-.016.078-.012s-.027.032-.07.059c-.399.277-.633.496-.809.75-.238.352-.34.648-.356 1.066-.019.442.086.809.344 1.2.168.254.492.562.754.71a.5.5 0 0 1 .125.094c0 .008-.031.008-.078.004a2.3 2.3 0 0 0-1.059.102c-.312.11-.57.27-.785.484a2.04 2.04 0 0 0-.55 1.05c-.075.38-.008.915.164 1.321a.7.7 0 0 1 .058.16c-.004.008-.055-.03-.113-.086a2.7 2.7 0 0 0-.543-.363c-.406-.2-.871-.281-1.254-.215a2.03 2.03 0 0 0-1.313.813c-.183.258-.351.64-.406.922-.011.058-.023.101-.031.101-.004 0-.035-.086-.066-.191-.223-.785-.664-1.305-1.297-1.531-.473-.168-.883-.18-1.332-.032a2.6 2.6 0 0 0-.848.485.6.6 0 0 1-.133.101c-.004-.004.028-.09.067-.191.246-.617.246-1.242.007-1.774a2.16 2.16 0 0 0-.687-.808 2.4 2.4 0 0 0-1.434-.367c-.226.011-.226.023.024-.141.297-.191.62-.55.785-.871a2.02 2.02 0 0 0-.145-2.047 2.7 2.7 0 0 0-.777-.715c-.047-.027-.094-.054-.098-.062a3 3 0 0 1 .352-.012c.39 0 .496-.012.785-.105a1.98 1.98 0 0 0 1.348-1.57 2.5 2.5 0 0 0-.172-1.298.6.6 0 0 1-.055-.148c0-.004.059.043.121.101.403.348.899.555 1.39.583.411.023.849-.102 1.216-.344.156-.106.418-.371.531-.54.152-.226.285-.523.344-.761.058-.227.062-.234.074-.207.008.012.027.086.047.168m0 0"/><path fill="#3D3C3C" d="M.64 26.09c-.05.02-.125.13-.136.2s-.016.058.398.746c.195.32.531.879.754 1.246.219.363.543.898.719 1.195.18.293.527.867.773 1.278.246.406.656 1.09.91 1.511.68 1.121 1.055 1.746 1.27 2.102.101.172.344.566.531.879.188.312.524.863.742 1.23.219.363.453.75.52.856.066.11.137.226.156.261l.035.067v6.52H5.668c-1.621.007-1.645.007-1.684.038-.09.082-.086.008-.09 1.743-.008 1.77-.011 1.668.098 1.746l.05.035H7.63c3.379 0 3.586 0 3.636-.028a.24.24 0 0 0 .075-.062c.023-.035.027-.531.027-4.992 0-3.965.004-4.969.02-5.016.011-.031.183-.324.382-.652.942-1.563 1.258-2.078 1.34-2.223l.395-.652.793-1.313c.265-.441.562-.93.652-1.082.156-.254.621-1.03 1.266-2.093.14-.235.363-.606.496-.825.129-.218.414-.687.629-1.043.746-1.226.808-1.336.828-1.406.015-.066.015-.082-.02-.148-.074-.137.137-.125-2.336-.13-1.539-.003-2.21 0-2.254.012-.074.02-.109.07-.27.372-.066.12-.26.476-.437.793-.175.312-.48.867-.68 1.226-.43.79-.566 1.035-1.472 2.668-1.012 1.832-1.336 2.414-1.344 2.434-.012.035.04.129-.851-1.489-.192-.347-.493-.89-.668-1.21s-.383-.696-.457-.833c-.317-.558-1.36-2.453-1.875-3.394-.211-.39-.297-.524-.352-.555-.035-.015-.457-.02-2.258-.023-1.41 0-2.226.004-2.254.011M42.011 26.083a.28.28 0 0 0-.144.105q-.017.03-.016 1.672c0 1.8-.008 1.684.094 1.75.04.027.129.027 1.246.031l1.207.004.008.254c.008.14.012 2.606.012 5.477 0 3.476.008 5.297.02 5.449.062.851.25 1.738.53 2.5q.698 1.904 2.133 3.094c1.09.902 2.485 1.453 4.145 1.64.644.07 1.699.082 2.344.024.984-.09 1.902-.305 2.671-.633a6.9 6.9 0 0 0 2.118-1.395c.57-.562.988-1.14 1.363-1.886.57-1.133.875-2.383.922-3.813.008-.297.015-2.484.015-5.598v-5.113l1.192-.004c1.168-.004 1.191-.004 1.246-.039.113-.062.105.031.11-1.629.003-.847 0-1.562-.012-1.636-.016-.168-.055-.22-.184-.246-.059-.012-1.078-.016-3.25-.016l-3.168.008-.047.03a.3.3 0 0 0-.07.09c-.028.052-.031.403-.031 6.653 0 4.094-.004 6.711-.016 6.902-.106 2.075-.793 3.422-2.059 4.055-.367.18-.765.293-1.257.36-.29.035-.91.035-1.196 0-.875-.114-1.535-.418-2.07-.954-.656-.664-1.05-1.605-1.191-2.855a5 5 0 0 0-.036-.293c-.007-.04-.015-3.168-.02-6.95l-.01-6.878-.036-.059c-.066-.113.215-.101-3.324-.105-1.758 0-3.215.004-3.239.004M68.937 26.083a.2.2 0 0 0-.133.152c-.015.047-.02.844-.02 2.676v2.617l-.608.008c-.336.008-1.18.008-1.875.004a27 27 0 0 0-1.333.004.3.3 0 0 0-.113.066c-.047.043-.047.059-.054.207-.008.086-.012.852-.012 1.7.004 1.241.004 1.554.023 1.585.012.028.051.063.09.082l.066.04 1.774-.008c.976 0 1.836 0 1.91.007l.133.012v8.938h-2.246c-2.11 0-2.254 0-2.309.027a.2.2 0 0 0-.082.086c-.027.05-.027.156-.027 1.691l.008 1.637.047.047a.3.3 0 0 0 .105.066c.035.012 1.422.016 4.254.012 4.113-.004 4.2-.004 4.246-.035.066-.043.086-.07.098-.145.007-.039.011-2.824.011-6.187.004-3.367.012-6.13.02-6.137a95 95 0 0 1 1.906-.02c2.133-.011 1.961 0 1.996-.132.028-.102.02-3.367-.008-3.422-.035-.074-.109-.11-.253-.125-.075-.004-.641-.008-1.258 0-.617.004-1.41.004-1.758-.004l-.64-.012v-2.629c-.005-2.527-.005-2.633-.032-2.691a.5.5 0 0 0-.078-.094c-.043-.031-.055-.031-1.922-.035a57 57 0 0 0-1.926.012M79.91 26.083c-.137.008-.2.039-.234.113-.02.035-.024 2.262-.024 10.723 0 9.57.004 10.687.024 10.722.015.02.05.051.078.067.05.027.164.027 1.98.027 1.82 0 1.934 0 1.984-.027a.2.2 0 0 0 .079-.075c.027-.039.03-.355.035-6.183l.004-6.137h11.476l.012.684c.004.379.008 3.136.008 6.133l-.004 5.445.035.058c.066.11-.078.102 2.05.102 1.837 0 1.934 0 1.985-.027a.24.24 0 0 0 .078-.086c.02-.051.024-1.438.024-10.719 0-9.96-.004-10.668-.028-10.719-.054-.117.079-.11-2.074-.11-1.902 0-1.93 0-1.972.032a.3.3 0 0 0-.07.078c-.024.043-.028.246-.028 2.688-.004 1.449-.012 2.644-.016 2.652-.02.016-9.023.031-10.406.012l-1.07-.008-.004-2.64-.004-2.637-.043-.07c-.035-.048-.063-.071-.106-.083-.062-.015-3.527-.03-3.77-.015m0 0"/></svg>