<svg xmlns="http://www.w3.org/2000/svg" xml:space="preserve" width="598.585px" height="304px" x="0px" y="0px" viewBox="0 0 598.585 304"><path d="M99.177 180.353h-17.42s-7.938 29.607-8.917 33.218H48.955c1.5-5.573 8.916-33.218 8.916-33.218H36.835l-23.659 88.29h21.023s8.34-31.146 9.306-34.76h23.919c-1.52 5.607-9.32 34.76-9.32 34.76h21.009l23.666-88.29h-3.602zM153.713 201.003s-.965 3.579-1.267 4.759c-3.938-4.52-9.594-6.827-16.949-6.827-9.765 0-19.126 3.855-27.83 11.45-7.34 6.488-12.319 14.469-14.797 23.721-2.671 10.024-1.877 18.567 2.41 25.43 4.492 7.404 11.908 11.172 22.022 11.172 4.314 0 8.95-1.031 13.743-3.103 1.993-.843 3.849-1.841 5.616-2.928-.027.056-1.068 3.966-1.068 3.966h19.304l18.119-67.64h-19.303zm-32.76 22.888c3.964-3.241 8.238-4.823 13.08-4.823 4.307 0 7.299 1.359 9.189 4.081 1.952 2.85 2.321 6.413 1.13 10.844-1.307 4.852-3.834 8.755-7.738 11.922-3.876 3.126-8.033 4.646-12.73 4.646-4.197 0-7.287-1.32-9.409-4.063-2.123-2.759-2.602-6.146-1.459-10.416 1.315-4.911 3.918-8.914 7.937-12.191zM235.399 222.265c.494-4.615-.014-8.693-1.533-12.055-1.562-3.461-4.205-6.252-7.889-8.286-3.568-1.982-7.417-2.989-11.47-2.989-5.362 0-10.211 1.369-14.634 3.831l.479-1.763h-19.489l-18.133 67.64h20.68l8.089-30.186c2.498-9.313 4.717-13.196 6.142-14.822 2.69-3.078 5.909-4.567 9.819-4.567 4.129 0 5.321 1.791 5.883 3.348.438 1.22.828 4.565-1.562 13.491l-8.772 32.736h20.674l9.183-34.264c1.439-5.348 2.261-9.32 2.533-12.114zM307.268 210.035c-4.677-7.365-12.032-11.1-21.905-11.1-6.384 0-12.06 1.441-16.963 4.272 2.13-7.943 6.122-22.854 6.122-22.854h-20.687l-23.634 88.29h19.374s.924-3.428 1.17-4.391c3.855 4.26 9.628 6.455 17.271 6.455 10.114 0 19.345-3.768 27.453-11.165 3.37-3.082 6.444-6.869 9.142-11.252 2.711-4.412 4.629-8.68 5.719-12.747 2.532-9.734 1.511-18.314-3.062-25.508zm-24.858 35.896c-3.801 3.13-7.889 4.629-12.511 4.629-4.608 0-7.813-1.389-9.779-4.292-2.047-2.982-2.423-6.746-1.13-11.52 1.186-4.484 3.773-8.145 7.902-11.145 4.116-3.01 8.45-4.536 12.908-4.536 4.314 0 7.28 1.359 9.121 4.146 1.199 1.809 1.78 3.88 1.78 6.225 0 1.476-.226 3.061-.678 4.771-1.272 4.716-3.751 8.538-7.613 11.722zM341.746 201.003h-17.092l-18.119 67.64h20.666l18.119-67.64zM385.976 201.003h-6.998c1.273-4.8 5.525-20.65 5.525-20.65H363.83s-4.643 17.342-5.533 20.65h-6.443l-5.033 18.768h6.458c-1.61 5.968-13.114 48.872-13.114 48.872h20.694s12.079-45.131 13.094-48.872h6.998l5.025-18.768zM336.788 196.428c6.047 0 12.019-4.714 13.627-10.706.261-.997.404-1.972.404-2.938 0-2.116-.608-4.092-1.842-5.667-1.739-2.257-4.424-3.513-7.554-3.513-6.039 0-12.011 4.691-13.627 10.696-.842 3.157-.322 6.307 1.438 8.611 1.747 2.265 4.439 3.517 7.554 3.517zM441.519 186.558c-3.848-5.088-9.512-7.663-16.832-7.663-7.362 0-13.997 1.288-20.063 5.821-6.349 4.598-10.554 10.624-12.498 17.917-.623 2.338-.938 4.54-.938 6.607 0 4.5 1.46 8.369 4.362 11.598 1.732 1.868 4.054 3.438 6.93 4.652 0-.003 7.472 2.533 7.472 2.533 5.067 1.426 8.703 3.157 10.477 4.979 2.41 2.54 3.062 5.711 1.993 9.689-1.158 4.272-3.643 7.854-7.416 10.668-3.814 2.843-7.951 3.276-12.271 3.276-3.855 0-6.636-1.289-8.505-3.937-1.945-2.76-2.438-6.067-1.493-10.114l.719-3.078H379.34l-.5 1.847c-2.252 8.039-1.185 14.871 3.191 20.31 4.328 5.368 10.629 8.091 18.749 8.091 7.506 0 14.764-1.605 21.604-6.735 6.842-5.167 11.327-11.527 13.319-18.958.685-2.55 1.021-4.979 1.021-7.262 0-4.917-1.562-9.221-4.691-12.855-1.985-2.216-4.457-3.977-7.34-5.257l-8.217-2.753c-4.753-1.432-7.924-2.79-9.424-4.017-1.411-1.219-2.108-2.77-2.108-4.752 0-.948.157-1.996.479-3.157.924-3.529 3.02-6.618 6.218-9.165 3.143-2.544 6.334-2.815 9.8-2.815 3.587 0 6.128 1.038 7.744 3.174 1.657 2.181 2.109 5.04 1.369 8.721l-.575 3.009 13.806-.075.52-1.791c2.007-7.22 1.069-13.448-2.786-18.508zM555.492 180.213c-7.607 0-13.976 1.195-19.44 5.362-5.129 3.804-8.587 9.179-10.498 15.829h-9.101l-3.431 12.781h8.944c-.691 2.589-14.456 54.508-14.456 54.508h13.647s14.031-52.949 14.448-54.508h10.697l3.416-12.781h-10.396c2.329-6.259 6.849-9.333 14.326-9.333h3.527l3.157-11.857h-4.84zM576.516 201.404c.645-2.387 5.752-21.099 5.752-21.099H568.62s-5.369 19.623-5.767 21.099h-8.388l-3.424 12.781h8.381c-.685 2.582-14.605 54.844-14.605 54.844h13.668l14.613-54.844h10.012l3.409-12.781h-10.003z"/><path d="M484.413 201.455c-9.328.017-18.674 4.091-26.939 10.627-8.258 6.543-13.688 14.449-15.806 23.711-2.066 9.094-1.588 17.605 3.672 24.211 5.279 6.604 12.565 9.9 21.899 9.891 9.463-.027 19.659-4.029 27.855-10.671 8.204-6.612 13.347-14.468 15.414-23.562 2.124-9.261 1.131-17.94-4.073-24.46-5.197-6.515-12.539-9.767-22.022-9.747zm4.423 48.705c-10.682 9.466-25.056 10.661-32.122 2.711-7.074-7.978-4.157-22.118 6.512-31.568 10.675-9.47 25.063-10.672 32.123-2.71 7.074 7.955 4.156 22.099-6.513 31.567z"/><path fill="#E10012" d="M450.393 37.197C434.629 10.412 386.86 16.52 339.069 56.902c-12.654 10.689-25.323 23.878-36.725 37.639-.219-5.358-1.801-12.162-6.841-18.804 7.786-11.837 13.463-23.434 15.831-33.465-.225.363-.472.705-.691 1.068-5.669 8.813-12.633 18.064-20.152 27.021a46.84 46.84 0 0 0-6.573-4.992s-24.201-16.027-53.406-.247c0 0 35.526-10.946 47.585 11.98 0 0 1.13 1.531 2.138 4.89-10.137 11.011-20.674 21.03-30.158 28.456-35.129 27.497-69.163 32.325-83.037 13.682-6.875-9.255-4.239-25.491 14.544-41.601-.78.466-1.534.925-2.287 1.38-30.918 18.893-40.052 45.363-29.576 62.917 13.525 22.708 55.754 14.589 95.355-16.411 12.889-10.097 25.687-22.766 36.608-36.033-.075 4.068-.616 8.947-1.896 14.699 0 0-2.712 8.406-.993 17.694-8.155 12.836-14.284 24.905-17.167 34.537.287-.465.597-.924.897-1.397 5.505-8.631 11.914-17.266 18.741-25.682.213.431.411.873.651 1.297 0 0 3.849 10.662 19.434 16.849 0 0 15.668 7.758 39.267.544 0 0 12.359-3.396 23.001-10.659 0 0-15.907 6.817-32.219 4.961 0 0-21.762.291-29.851-13.401 0 0-4.101-7.648-2.451-19.889 10.711-11.282 21.776-21.56 32.144-29.798 41.032-32.626 72.018-29.264 82.749-18.003 10.744 11.251 11.176 26.456-.103 45.874-.26.448-.493.876-.753 1.305 38.258-22.487 49.761-54.874 37.258-76.116z"/></svg>